Patient4_TMGait_0pt2_03_right_09_EMG.mot
version=1
nRows=20
nColumns=33
inDegrees=no
endheader
time	1LAddLong	2LGlutMax	3LGlutMed	4LIliopsoas	5LSemiMemb	6LBicFemLong	7LRecFem	8LVastMed	9LVastLat	10LGasMed	11LTibAnt	12lTibPost	13LPeroneusLong	14LSol	15LExtDigLong	16LFlexDigLong	17RAddLong	18RGlutMax	19RGlutMed	20RIliopsoas	21RSemiMemb	22RBicFemLong	23RRecFem	24RVastMed	25RVastLat	26RGasMed	27RTibAnt	28RTibPost	29RPeroneusLong	30RSol	31RExtDigLong	32RFlexDigLong
19.16	0.005341	0.072327	-0.11673	0.018311	-0.10544	0.067139	-0.081329	0.039978	0.18265	0.021362	0.001984	0.01236	0.22064	-0.004272	0.069427	0.005646	0.13794	-0.031433	1.2183	0.21011	-0.098114	-0.031586	0.047302	0.040283	0.044861	0.000153	-0.17868	-0.003052	0.012665	-0.023499	-0.003967	-0.033112
19.161	0.008087	0.099487	-0.2504	0.020752	-0.16037	0.016022	-0.04837	0.018311	0.21637	-0.017853	-0.02655	0.00885	0.4454	0.006866	0.074921	0.018921	0.099945	-0.048676	1.1949	0.23941	-0.11368	-0.032501	0.027313	0.036011	0.03479	0.000458	-0.11627	-0.003204	-0.03067	0.007324	-0.001984	-0.029144
19.162	0.037231	0.10452	-0.011749	-0.027771	-0.086212	-0.045166	-0.02121	0.000916	0.21118	0.014496	-0.049896	0.005493	0.30884	-0.010834	-0.11658	0.014954	0.058746	-0.050659	1.2334	0.18936	-0.10483	-0.023499	-0.041199	0.048828	0.060272	-0.010834	-0.032959	-0.005035	-0.02121	0.082245	0.002289	-0.024109
19.163	0.044098	0.11307	0.16449	-0.004272	0.057983	-0.092773	0.080872	-0.034637	0.13412	0.004578	-0.024719	0.008087	-0.31799	0.085297	-0.16754	0.007477	0.06424	-0.066986	1.044	0.29236	-0.10712	-0.029755	-0.063019	0.039673	0.045319	-0.010376	-0.027924	-0.002899	-0.003204	0.00824	-0.002747	-0.024261
19.164	0.038605	0.11032	0.121	0.016022	0.11459	-0.056305	0.20599	-0.046844	0.01358	0.030212	0.028839	0.019684	-0.31006	-0.055237	-0.12863	-0.001678	0.05661	-0.072479	0.88272	0.38864	-0.10101	-0.046539	-0.047913	0.028229	0.016632	-0.007935	0.047913	-0.001678	-0.084229	-0.028381	-0.00061	-0.022583
19.165	0.016327	0.13931	0.2301	0.024872	0.11337	-0.001221	0.1918	-0.028381	-0.16983	0.060425	0.033722	0.002594	-0.063477	-0.16434	-0.052338	0.002136	0.068054	-0.096741	0.76218	0.40817	-0.11398	-0.065765	-0.048065	0.016479	0.02121	-0.003662	0.14923	-0.001221	-0.11185	-0.033417	0.002289	-0.029907
19.166	0.009308	0.081177	0.29236	-0.020905	0.076447	0.034637	0.10193	-0.022278	-0.38086	0.033722	0.019226	0.019073	-0.10346	-0.16525	-0.029755	0.009308	0.060425	-0.092468	0.86624	0.27298	-0.1088	-0.059967	-0.010681	0.029297	0.011749	-0.013428	0.10696	-0.001068	-0.076141	-0.013428	-0.00473	-0.036163
19.167	0.016479	0.06958	0.16357	-0.015259	0.045013	0.077057	-0.016937	-0.037384	-0.41931	-0.018158	0.017548	0.000763	-0.13062	-0.10513	0.008545	0.00412	0.046539	-0.12283	1.2074	0.14435	-0.12146	-0.068207	-0.044708	0.027924	0.021667	-0.011597	0.1503	-0.003052	-0.13962	-0.001373	-0.002289	-0.028992
19.168	0.007019	0.001831	-0.005188	-0.011597	0.035553	0.05249	-0.06134	-0.042419	-0.33752	-0.018616	-0.027161	0.005035	0.006104	-0.15808	0.071259	-0.010223	0.027313	-0.15411	1.0426	-0.099792	-0.12131	-0.080261	-0.060577	-0.013123	0.014343	-0.009003	0.1445	-0.001984	-0.16342	-0.0354	-0.001678	-0.033264
19.169	0.009308	0.016479	-0.030975	0.067902	0.009613	0.005798	-0.079651	-0.028992	-0.27008	0.010376	-0.024109	0.003052	-0.16754	-0.095062	0.080414	-0.007172	-0.02594	-0.084381	1.0541	-0.32898	-0.1239	-0.070038	-0.04837	-0.016174	0.028992	-0.00351	0.048523	-0.003204	-0.15305	-0.064697	0.005035	-0.033875
19.17	0.015869	0.055237	-0.092468	0.043488	0.001831	-0.042572	-0.054321	-0.006866	-0.13275	-0.020447	-0.044708	0.011292	-0.045471	-0.055237	0.085297	-0.010986	-0.010529	-0.045013	1.1934	-0.336	-0.14175	-0.078125	-0.019989	0.027618	0.040131	-0.002899	0.14191	-0.001526	-0.14511	-0.10986	-0.002441	-0.036621
19.171	0.006561	0.007019	-0.12558	0.005951	0.009003	-0.032349	-0.055695	0.037537	-0.086365	0.013885	-0.023499	0.006104	0.042419	-0.05188	0.10071	-0.007324	0.055084	-0.075989	1.0387	-0.31586	-0.14465	-0.06012	-0.026703	0.003357	0.019836	-0.006561	0.33646	-0.00885	-0.098572	-0.16342	-0.002136	-0.036316
19.172	-0.002136	0.006409	-0.09552	-0.015106	0.00946	0.003204	-0.059357	0.057831	-0.060425	0.024261	-0.018768	0.00351	0.41016	-0.074005	0.088196	0.006714	0.047913	-0.0914	1.6324	-0.23941	-0.14267	-0.027924	-0.027924	0.013123	0.023346	0.002899	0.28686	-0.002747	-0.096893	-0.1973	-0.002747	-0.032959
19.173	-0.001831	0.015717	0.10605	-0.009003	0.007782	0.029449	-0.036926	0.0737	0.053406	0.029297	-0.027008	0	0.17716	-0.058136	0.037994	-0.004272	0.04776	-0.10681	1.6823	-0.15747	-0.12924	-0.037079	-0.088043	0.024261	0.020752	-0.004578	0.25681	-0.001068	-0.064087	-0.16296	-0.00061	-0.029449
19.174	-0.00473	0.050964	0.08255	0.020294	0.014038	0.054626	-0.016937	0.033569	0.03479	0.06134	-0.015106	-0.001526	0.19592	-0.037689	-0.021515	0.002136	0.024109	-0.069885	1.0486	-0.035248	-0.11871	-0.037231	-0.087891	0.024261	0.034332	0.002136	0.53513	-0.002594	-0.037842	-0.12726	-0.002289	-0.029602
19.175	0.000458	0.034637	-0.046234	-0.012665	-0.012817	0.041351	-0.088348	0.010071	0.11765	0.071106	0.001831	-0.008087	-0.076141	-0.14572	0.042267	-0.001373	0.020599	-0.059967	1.2576	-0.027924	-0.12695	-0.049438	-0.14496	0.041656	0.028687	-0.004578	-0.050049	0.008392	0.049744	-0.083618	0.000305	-0.032043
19.176	-0.015564	0.070648	-0.068665	-0.009155	-0.056458	0.036469	0.047302	0.008087	0.37476	0.041046	-0.010223	-0.032196	-0.17227	-0.11749	0.064697	-0.000153	0.050201	-0.062408	1.2488	-0.064087	-0.12543	-0.040131	-0.18982	0.057831	0.026703	0.009613	-0.28809	-0.003815	0.12894	-0.12283	-0.001221	-0.026855
19.177	-0.02243	0.089264	0.047302	-0.000916	-0.079346	0.003815	0.15595	-0.00412	0.48477	0.02121	-0.031128	0.021667	0.079498	-0.018921	0.10346	-0.002899	0.017395	-0.061798	1.2875	-0.16937	-0.10956	-0.031281	-0.18448	0.067291	0.02594	0.007019	-0.33096	-0.004425	0.1561	-0.10223	-0.001373	-0.023041
19.178	-0.01709	0.088654	0.043488	0	0.009918	-0.005341	0.15366	-0.015259	0.49454	0.028534	-0.028076	0.000305	0.16129	0.021515	0.090485	-0.005646	-0.022278	-0.084534	1.4966	-0.12787	-0.10803	0.007172	-0.2005	0.046997	0.041199	0.00351	-0.18814	-0.00061	0.16052	-0.10391	0.002747	-0.015869
19.179	-0.022125	0.10269	0.046387	-0.007172	0.082855	0.016479	0.096283	-0.029602	0.24048	0.023346	-0.011292	-0.018616	-0.061646	0.029449	0.061646	-0.00473	-0.067902	-0.13977	0.87784	0.010071	-0.10834	-0.008087	-0.19043	0.073547	0.041351	0.010834	0.085297	-0.006104	0.091705	0.000763	-0.005188	-0.022278
